<svg xmlns="http://www.w3.org/2000/svg" viewBox="240 290 340 340" width="800" height="800"><rect x="240" y="290" width="340" height="340" fill="#F4DCCF"/><ellipse cx="400" cy="640" rx="300" ry="54" fill="#E2D5BF"/><ellipse cx="400" cy="626" rx="100" ry="16" fill="#24282C" opacity=".14"/><path d="M400 380C385 300 420 230 470 150" stroke="#6F8669" stroke-width="6" fill="none" stroke-linecap="round"/><ellipse cx="452" cy="190" rx="26" ry="11" fill="#6F8669" transform="rotate(-30 452 190)"/><ellipse cx="430" cy="240" rx="26" ry="11" fill="#6F8669" transform="rotate(30 430 240)"/><ellipse cx="412" cy="290" rx="26" ry="11" fill="#6F8669" transform="rotate(-35 412 290)"/><ellipse cx="470" cy="165" rx="26" ry="11" fill="#6F8669" transform="rotate(40 470 165)"/><path d="M380 370h40v40c0 20 70 50 70 120 0 60-40 92-90 92s-90-32-90-92c0-70 70-100 70-120Z" fill="#F7F1E6"/><path d="M340 480c-12 30-10 70 10 100" stroke="#ffffff" stroke-width="12" stroke-linecap="round" fill="none" opacity=".8"/><ellipse cx="400" cy="370" rx="22" ry="6" fill="#D9B99B"/><g fill="#3A4046" opacity="0.4"><circle cx="397.6" cy="487.3" r="2.8"/><circle cx="350.3" cy="507.1" r="2.0"/><circle cx="374.0" cy="531.9" r="1.9"/><circle cx="446.2" cy="539.1" r="1.7"/><circle cx="439.0" cy="534.7" r="2.2"/><circle cx="359.2" cy="588.1" r="2.6"/><circle cx="411.3" cy="595.6" r="3.2"/><circle cx="376.2" cy="516.2" r="2.5"/><circle cx="333.5" cy="522.5" r="2.0"/><circle cx="358.9" cy="510.4" r="3.0"/><circle cx="427.0" cy="535.3" r="2.3"/><circle cx="357.8" cy="549.8" r="2.4"/><circle cx="378.9" cy="557.5" r="2.1"/><circle cx="355.1" cy="566.8" r="3.1"/><circle cx="465.4" cy="530.2" r="2.5"/><circle cx="423.9" cy="595.9" r="3.4"/><circle cx="433.4" cy="556.4" r="2.4"/><circle cx="426.4" cy="522.3" r="3.2"/><circle cx="407.1" cy="594.9" r="3.0"/><circle cx="366.8" cy="543.3" r="2.1"/><circle cx="355.9" cy="578.2" r="1.9"/><circle cx="451.2" cy="558.1" r="2.7"/><circle cx="412.1" cy="562.1" r="1.8"/><circle cx="404.4" cy="566.1" r="2.0"/><circle cx="366.0" cy="534.6" r="3.2"/><circle cx="370.8" cy="571.1" r="2.3"/><circle cx="430.8" cy="593.8" r="3.1"/><circle cx="411.9" cy="595.2" r="2.6"/><circle cx="408.4" cy="510.8" r="3.4"/><circle cx="353.6" cy="552.5" r="2.0"/><circle cx="426.2" cy="546.2" r="2.1"/><circle cx="371.4" cy="565.0" r="3.4"/><circle cx="404.5" cy="555.7" r="2.9"/><circle cx="449.1" cy="579.3" r="2.0"/></g></svg>
