<svg xmlns="http://www.w3.org/2000/svg" viewBox="0 0 800 800" width="800" height="800"><rect width="800" height="800" fill="#EFE6D6"/><g transform="translate(400 410) scale(1.28) translate(-400 -420)"><ellipse cx="400" cy="600" rx="230" ry="36.800000000000004" fill="#24282C" opacity=".14"/><path d="M150 470C230 280 470 220 650 300 600 470 390 580 150 470Z" fill="#6F8669"/><path d="M170 460C250 300 460 250 625 310 580 450 390 545 170 460Z" fill="#8FA58A"/><path d="M170 460C320 400 470 340 625 310" stroke="#6F8669" stroke-width="6" fill="none"/><path d="M280 420L250 360" stroke="#6F8669" stroke-width="4" opacity=".7"/><path d="M380 385L360 320" stroke="#6F8669" stroke-width="4" opacity=".7"/><path d="M480 350L470 300" stroke="#6F8669" stroke-width="4" opacity=".7"/><path d="M330 405L370 450" stroke="#6F8669" stroke-width="4" opacity=".7"/><path d="M440 365L480 410" stroke="#6F8669" stroke-width="4" opacity=".7"/><circle cx="430" cy="380" r="16" fill="none" stroke="#E8A33D" stroke-width="5"/><g fill="#F7F1E6" opacity="0.4"><circle cx="521.4" cy="437.7" r="2.5"/><circle cx="540.4" cy="367.6" r="3.3"/><circle cx="486.0" cy="348.1" r="2.0"/><circle cx="478.2" cy="399.1" r="2.8"/><circle cx="207.7" cy="416.2" r="2.6"/><circle cx="204.9" cy="389.2" r="2.1"/><circle cx="491.2" cy="345.0" r="2.1"/><circle cx="583.4" cy="381.8" r="2.1"/><circle cx="340.2" cy="443.8" r="3.2"/><circle cx="506.8" cy="378.4" r="1.7"/><circle cx="492.1" cy="389.9" r="2.6"/><circle cx="340.8" cy="350.7" r="1.8"/><circle cx="306.2" cy="385.4" r="2.4"/><circle cx="502.1" cy="427.7" r="2.9"/><circle cx="222.0" cy="416.5" r="3.0"/><circle cx="435.3" cy="353.3" r="3.3"/><circle cx="261.0" cy="351.9" r="2.9"/><circle cx="499.6" cy="346.0" r="3.0"/><circle cx="339.7" cy="429.6" r="1.8"/><circle cx="379.8" cy="359.7" r="3.4"/><circle cx="555.4" cy="422.0" r="2.1"/><circle cx="238.6" cy="362.4" r="2.3"/><circle cx="412.7" cy="365.4" r="1.9"/><circle cx="304.1" cy="452.4" r="2.3"/><circle cx="433.0" cy="359.3" r="2.0"/><circle cx="479.0" cy="406.5" r="1.6"/><circle cx="414.1" cy="350.9" r="3.0"/><circle cx="488.3" cy="344.9" r="3.1"/><circle cx="349.5" cy="360.8" r="3.3"/><circle cx="324.7" cy="346.5" r="3.2"/></g></g></svg>
